<?xml version="1.0" encoding="UTF-8" standalone="no"?><!DOCTYPE svg PUBLIC "-//W3C//DTD SVG 1.1//EN" "http://www.w3.org/Graphics/SVG/1.1/DTD/svg11.dtd"><svg width="100%" height="100%" viewBox="0 0 2728 2001" version="1.1" xmlns="http://www.w3.org/2000/svg" xmlns:xlink="http://www.w3.org/1999/xlink" xml:space="preserve" xmlns:serif="http://www.serif.com/" style="fill-rule:evenodd;clip-rule:evenodd;stroke-linejoin:round;stroke-miterlimit:2;"><rect id="Artboard1" x="0" y="0" width="2727.78" height="2000.68" style="fill:none;"/><g><path d="M0,2000l0,-959.346l409.609,-0l-0,129.35l-272.175,-0l0,291.037l237.142,0l0,129.35l-237.142,0l0,409.609l-137.434,0Z" style="fill-rule:nonzero;"/><path d="M708.731,1664.5l-67.37,-347.628l-2.695,-0l-67.37,347.628l137.435,0Zm-339.544,335.502l214.236,-959.346l114.529,-0l214.236,959.346l-137.435,0l-40.422,-206.152l-187.288,0l-40.422,206.152l-137.434,0Z" style="fill-rule:nonzero;"/><path d="M979.557,2000l0,-959.346l203.457,-0c79.048,-0 139.007,21.558 179.878,64.675c40.871,43.116 61.306,104.198 61.306,183.246l0,448.683c0,89.826 -21.783,156.073 -65.348,198.741c-43.566,42.667 -106.22,64.001 -187.962,64.001l-191.331,0Zm137.435,-829.996l-0,700.646l63.328,-0c38.625,-0 66.022,-9.656 82.191,-28.969c16.169,-19.313 24.253,-49.629 24.253,-90.949l-0,-462.157c-0,-37.728 -7.635,-66.921 -22.906,-87.581c-15.27,-20.66 -43.117,-30.99 -83.538,-30.99l-63.328,-0Z" style="fill-rule:nonzero;"/><path d="M1814.94,1664.5l-67.369,-347.628l-2.695,-0l-67.37,347.628l137.434,0Zm-339.544,335.502l214.237,-959.346l114.528,-0l214.236,959.346l-137.434,0l-40.422,-206.152l-187.288,0l-40.422,206.152l-137.435,0Z" style="fill-rule:nonzero;"/><path d="M2085.77,2000l0,-959.346l409.609,-0l-0,129.35l-272.174,-0l-0,281.606l237.141,-0l0,129.35l-237.141,-0l-0,281.606l272.174,-0l-0,137.434l-409.609,0Z" style="fill-rule:nonzero;"/><rect x="2588.35" y="1040.65" width="137.434" height="959.346" style="fill-rule:nonzero;"/><path d="M339.544,623.845l-67.37,-347.629l-2.695,0l-67.369,347.629l137.434,-0Zm-339.544,335.501l214.236,-959.346l114.529,0l214.236,959.346l-137.435,0l-40.421,-206.151l-187.289,-0l-40.422,206.151l-137.434,0Z" style="fill-rule:nonzero;"/><path d="M747.805,129.35l0,299.122l78.149,0c24.253,0 43.566,-3.368 57.938,-10.105c14.372,-6.737 25.601,-16.394 33.685,-28.969c7.186,-12.576 12.127,-28.071 14.822,-46.486c2.694,-18.414 4.042,-39.748 4.042,-64.001c-0,-24.253 -1.348,-45.587 -4.042,-64.001c-2.695,-18.415 -8.085,-34.359 -16.169,-47.833c-17.067,-25.151 -49.405,-37.727 -97.013,-37.727l-71.412,0Zm-137.434,829.996l-0,-959.346l220.973,0c161.687,0 242.531,93.869 242.531,281.606c0,56.591 -8.758,104.648 -26.274,144.171c-17.516,39.524 -48.282,71.412 -92.297,95.666l148.214,437.903l-145.519,0l-128.003,-409.608l-82.191,-0l0,409.608l-137.434,0Z" style="fill-rule:nonzero;"/><path d="M1461.92,623.845l-67.369,-347.629l-2.695,0l-67.37,347.629l137.434,-0Zm-339.544,335.501l214.237,-959.346l114.528,0l214.236,959.346l-137.434,0l-40.422,-206.151l-187.288,-0l-40.422,206.151l-137.435,0Z" style="fill-rule:nonzero;"/><path d="M1732.75,959.346l0,-959.346l203.457,0c79.047,-0 139.007,21.558 179.878,64.675c40.871,43.117 61.306,104.199 61.306,183.246l0,448.683c0,89.827 -21.783,156.074 -65.349,198.741c-43.565,42.668 -106.219,64.001 -187.961,64.001l-191.331,0Zm137.435,-829.996l-0,700.646l63.327,0c38.626,0 66.023,-9.656 82.192,-28.969c16.168,-19.312 24.253,-49.629 24.253,-90.949l-0,-462.157c-0,-37.727 -7.636,-66.921 -22.906,-87.581c-15.271,-20.66 -43.117,-30.99 -83.539,-30.99l-63.327,0Z" style="fill-rule:nonzero;"/></g></svg>